<?xml version="1.0" encoding="utf-8"?>
<!-- Generator: Adobe Illustrator 16.0.0, SVG Export Plug-In . SVG Version: 6.00 Build 0)  -->
<!DOCTYPE svg PUBLIC "-//W3C//DTD SVG 1.1//EN" "http://www.w3.org/Graphics/SVG/1.1/DTD/svg11.dtd">
<svg version="1.1" id="Layer_1" xmlns="http://www.w3.org/2000/svg" xmlns:xlink="http://www.w3.org/1999/xlink" x="0px" y="0px"
	 width="147.472px" height="56.8px" viewBox="-66.5 12.8 147.472 56.8" enable-background="new -66.5 12.8 147.472 56.8"
	 xml:space="preserve">
<path fill="#00AAFF" d="M-13.579,69.6h-47.389c0,0-2.222-10.238,0-12.678c7.447-8.172,39.014-7.363,47.389,0.066
	C-11.077,59.205-13.579,69.6-13.579,69.6z"/>
<path fill="#00AAFF" d="M-8.509,61.721c0.085,0.033,0.233,0.058,0.485,0.019l0.016-0.001l0-0.018
	c0.004-0.034,0.327-3.547,0.895-7.551c0.323-2.283,1.786-6.578,2.628-8.935c1.087-3.038,2.049-5.407,2.332-5.937
	c-1.97,4.951-3.559,9.879-4.72,14.651l0.036,0.017c0.177-0.251,4.341-6.146,4.373-6.339l0.004-0.026l-0.025,0.003
	c-0.515,0.039-1.451-0.647-1.85-0.995c0.841,0.633,1.558,0.75,2.126,0.351l0.005-0.003l0.002-0.006
	c0.386-0.903,0.796-1.699,1.191-2.47c0.544-1.059,1.059-2.06,1.509-3.299l0.023-0.062l-0.053,0.039
	c-0.197,0.146-0.856,0.291-1.839,0.125c0.662-0.036,1.704-0.452,2.021-0.795c0.085-0.09,0.118-0.172,0.1-0.245
	c0.093-0.652,0.331-1.61,0.561-2.535c0.209-0.843,0.407-1.638,0.5-2.209c0.004-0.022-0.002-0.046-0.018-0.072
	c-0.075-0.122-0.376-0.279-0.866-0.338c-0.036-0.003-0.061-0.007-0.079-0.01c0.051-0.01,0.138-0.02,0.223-0.03
	c0.423-0.049,0.745-0.096,0.746-0.21c0.006-0.413,0.852-3.876,1.582-4.778l0.013-0.01l-0.024-0.039l-0.017,0.02
	c-0.364,0.288-0.828,0.567-1.319,0.864c-1.018,0.614-2.073,1.25-2.146,1.954c-0.021,0.197-0.182,0.284-0.274,0.305
	c-0.058,0.014-0.097,0.004-0.106-0.012c-0.006-0.011,0-0.028,0.007-0.039c0.117-0.214,0.105-0.23,0.097-0.245l-0.009-0.012
	l-0.011-0.001c-0.027-0.002-0.068,0.038-0.203,0.188c-0.044,0.048-0.089,0.099-0.125,0.134c-0.157,0.155-0.391,0.431-0.678,0.794
	c-0.285,0.362-1.243,1.655-1.61,2.167c-0.126,0.176-0.088,0.512,0.114,1c0.165,0.4,0.403,0.816,0.545,1.062
	c0.043,0.075,0.082,0.143,0.104,0.185c-0.887-0.511-1.527-0.877-1.729-0.71c-0.629,0.515-1.995,2.775-2.259,3.457
	c-0.273,0.708-0.203,1.599,0.174,2.218c0.167,0.272,0.381,0.482,0.638,0.625c0.154,0.086,0.205,0.127,0.224,0.148
	c-0.154-0.003-1.363-0.46-1.649-0.81c-0.019-0.025-0.04-0.022-0.05-0.019c-0.061,0.019-0.246,0.08-0.604,5.45
	c-0.178,2.647-0.312,5.313-0.313,5.339l-1.295,10.528l0.039,0.009C-8.492,62.758-8.465,62.012-8.509,61.721z"/>
<circle fill="#00AAFF" cx="-1.562" cy="53.976" r="7.2"/>
<path fill="#00AAFF" d="M-25.187,20.611c-1.317-4.467-6.557-7.812-12.851-7.812c-7.188,0-13.021,4.354-13.185,9.769
	c-4.422,3.895-7.273,9.548-7.396,15.831l-0.233,11.884l0.525-0.074c0.097-0.014,8.554-1.193,16.73-1.492
	c1.535,1.046,2.947,1.682,2.947,1.682s1.434-0.647,2.984-1.708c8.539,0.301,19.535,2.324,19.65,2.346l0.522,0.098l0.233-11.888
	C-15.107,31.47-19.092,24.558-25.187,20.611z M-57.928,49.246l0.212-10.828c0.102-5.216,2.164-9.976,5.464-13.583
	c-0.574,1.375-0.962,2.845-1.118,4.387c-1.537,1.646-2.888,3.074-2.639,4.282c0.488,2.365,2.248,4.033,4.055,3.951
	c0.343,0.726,0.743,1.42,1.189,2.081l-6.164,1.676l0.152,0.78l6.513-1.771c0.646,0.851,1.372,1.634,2.175,2.335l-8.04,1.855
	l0.18,0.78l8.636-1.993c0.633,0.484,1.302,0.923,2.006,1.308c0.356,1.262,1.401,2.415,2.56,3.358
	C-49.431,48.17-56.05,48.999-57.928,49.246z M-35.883,36.906c-1.158-0.637-2.168-1.39-2.834-2.166
	c-0.543,1.048-1.836,2.112-3.39,2.966c-2.477,1.361-5.16,1.235-5.994-0.283c-0.167-0.303-0.244-0.64-0.246-0.995
	c1.193,0.766,3.305,0.632,5.285-0.458c1.294-0.711,2.706-1.914,3.579-2.582c1.234-0.589,2.574,0.693,4.554,1.782
	c1.981,1.089,4.092,1.224,5.284,0.458c-0.001,0.354-0.078,0.692-0.245,0.995C-30.723,38.142-33.407,38.268-35.883,36.906z
	 M-16.374,50.054c-2.188-0.386-10.817-1.849-18.145-2.217c0.869-0.714,1.672-1.545,2.162-2.451c1.85-0.697,3.52-1.743,4.955-3.044
	l8.873,2.048l0.18-0.78l-8.371-1.931c0.844-0.862,1.588-1.815,2.216-2.853l6.776,1.564l0.18-0.78l-6.547-1.511
	c0.164-0.309,0.333-0.615,0.477-0.936c0.217,0.109,0.447,0.19,0.689,0.24c1.954,0.403,3.968-1.343,4.496-3.901
	c0.332-1.606-2.164-3.599-4.168-5.981c-0.417-1.95-1.21-3.757-2.281-5.362c-0.008-0.094-0.03-0.186-0.041-0.28
	c5.412,3.851,8.898,10.221,8.76,17.35L-16.374,50.054z M-23.415,34.441c0.278,0.53,0.781,0.914,1.359,1.021
	c0.574,0.119,1.188-0.05,1.627-0.433c0.432-0.366,0.626-1.006,0.46-1.56c-0.143-0.564-0.667-1.012-1.261-0.976
	c-0.582,0-1.142,0.507-1.067,1.112c0.021,0.286,0.173,0.579,0.433,0.724c0.256,0.149,0.6,0.14,0.852-0.032
	c-0.242,0.185-0.596,0.218-0.876,0.075c-0.285-0.141-0.465-0.444-0.507-0.757c-0.037-0.317,0.073-0.65,0.302-0.879
	c0.228-0.225,0.538-0.36,0.857-0.376c0.319-0.018,0.644,0.081,0.901,0.276c0.262,0.203,0.429,0.479,0.525,0.787
	c0.191,0.613,0.002,1.327-0.494,1.762c-0.484,0.406-1.168,0.583-1.785,0.44c-0.623-0.123-1.167-0.565-1.443-1.121
	c-0.297-0.55-0.372-1.21-0.222-1.812c0.156-0.601,0.538-1.131,1.044-1.469C-23.702,31.95-24.009,33.401-23.415,34.441z"/>
<path fill="#FFCE00" d="M70.904,19.59H34.283c-1.146,0-2.076,1.057-2.076,2.354v24.185c0,1.304,0.93,2.354,2.076,2.354h36.622
	c1.145,0,2.074-1.05,2.074-2.354V21.947C72.979,20.647,72.049,19.59,70.904,19.59z M42.839,37.423c-2.895,0-5.24-2.667-5.24-5.951
	c0-3.289,2.347-5.954,5.24-5.954s5.241,2.666,5.241,5.954C48.08,34.757,45.73,37.423,42.839,37.423z M62.348,37.423
	c-2.893,0-5.244-2.667-5.244-5.951c0-3.289,2.352-5.954,5.244-5.954s5.24,2.666,5.24,5.954
	C67.588,34.757,65.24,37.423,62.348,37.423z"/>
<path fill="#FFCE00" d="M30.859,42.176h-1.376c-0.976,0-1.766-0.898-1.766-2.009V27.909c0-1.113,0.792-2.012,1.766-2.012h1.376
	V42.176z"/>
<path fill="#FFCE00" d="M26.668,39.504h-0.967c-0.977,0-1.77-0.902-1.77-2.01v-6.912c0-1.11,0.794-2.008,1.77-2.008h0.967V39.504z"
	/>
<path fill="#FFCE00" d="M74.041,42.176h1.375c0.979,0,1.768-0.898,1.768-2.009V27.909c0-1.113-0.789-2.012-1.768-2.012h-1.375
	V42.176z"/>
<path fill="#FFCE00" d="M78.235,39.504h0.964c0.975,0,1.772-0.902,1.772-2.01v-6.912c0-1.11-0.798-2.008-1.772-2.008h-0.964V39.504z
	"/>
<path fill="#FFCE00" d="M76.496,69.6H29.107c0,0-2.222-10.238,0-12.678c7.447-8.172,39.014-7.363,47.389,0.066
	C78.998,59.205,76.496,69.6,76.496,69.6z"/>
<g>
	<g>
		<path fill="#FFCE00" d="M15.077,61.627c-0.108,0.317-0.457,0.489-0.779,0.386l-1.028-0.334c-0.321-0.104-0.501-0.452-0.403-0.77
			l0.188-0.614c0.099-0.318-0.04-0.739-0.314-0.937l-0.337-0.247c-0.272-0.197-0.717-0.201-0.99-0.009L10.89,59.47
			c-0.274,0.194-0.658,0.129-0.857-0.146L9.396,58.45c-0.198-0.272-0.14-0.658,0.126-0.858l0.512-0.385
			c0.269-0.201,0.403-0.622,0.298-0.944l-0.129-0.396c-0.104-0.32-0.461-0.584-0.795-0.59l-0.64-0.011
			c-0.336-0.006-0.608-0.284-0.608-0.62v-1.083c0-0.338,0.274-0.616,0.608-0.622l0.64-0.009c0.336-0.006,0.691-0.268,0.795-0.588
			l0.129-0.398c0.104-0.319-0.031-0.744-0.298-0.944l-0.512-0.384c-0.269-0.203-0.325-0.587-0.126-0.86l0.636-0.874
			c0.199-0.273,0.584-0.337,0.857-0.146l0.524,0.369c0.275,0.192,0.716,0.19,0.99-0.009l0.337-0.246
			c0.272-0.198,0.412-0.62,0.314-0.939l-0.188-0.613c-0.099-0.321,0.081-0.665,0.403-0.769l1.028-0.334
			c0.321-0.104,0.67,0.071,0.779,0.387l0.208,0.606c0.108,0.318,0.467,0.575,0.806,0.575h0.418c0.336,0,0.697-0.259,0.805-0.575
			l0.208-0.606c0.108-0.317,0.457-0.491,0.779-0.387l1.028,0.334c0.321,0.104,0.501,0.45,0.403,0.769l-0.188,0.613
			c-0.098,0.321,0.04,0.74,0.314,0.939l0.337,0.246c0.272,0.198,0.716,0.201,0.989,0.009l0.524-0.369
			c0.274-0.192,0.658-0.127,0.857,0.146l0.636,0.874c0.198,0.272,0.14,0.658-0.126,0.86l-0.512,0.384
			c-0.269,0.202-0.403,0.622-0.298,0.944l0.129,0.398c0.104,0.319,0.461,0.582,0.795,0.588l0.64,0.009
			c0.336,0.006,0.608,0.284,0.608,0.622v1.083c0,0.336-0.274,0.614-0.608,0.62l-0.64,0.011c-0.335,0.006-0.69,0.266-0.795,0.59
			l-0.129,0.396c-0.104,0.319,0.031,0.743,0.298,0.944l0.512,0.385c0.269,0.201,0.325,0.586,0.126,0.858l-0.636,0.874
			c-0.199,0.274-0.584,0.338-0.857,0.146l-0.524-0.367c-0.274-0.192-0.715-0.19-0.989,0.009l-0.337,0.247
			c-0.272,0.195-0.412,0.618-0.314,0.937l0.188,0.614c0.099,0.321-0.081,0.665-0.403,0.77l-1.028,0.334
			c-0.321,0.104-0.67-0.07-0.779-0.386l-0.208-0.607c-0.108-0.317-0.467-0.575-0.805-0.575H16.09c-0.336,0-0.697,0.26-0.806,0.575
			L15.077,61.627z M16.299,58.062c2.186,0,3.958-1.772,3.958-3.958c0-2.187-1.772-3.958-3.958-3.958s-3.958,1.771-3.958,3.958
			C12.341,56.29,14.113,58.062,16.299,58.062z"/>
	</g>
</g>
</svg>
