<svg xmlns="http://www.w3.org/2000/svg" xmlns:xlink="http://www.w3.org/1999/xlink" version="1.1" x="0px" y="0px" viewBox="0 0 100 125" enable-background="new 0 0 100 100" xml:space="preserve"><path fill="#000000" d="M91.075,87H31.838c0,0-2.778-12.799,0-15.848c9.308-10.215,48.767-9.204,59.237,0.083  C94.201,74.007,91.075,87,91.075,87z"/><path fill="#000000" d="M8.114,77.151c0.107,0.042,0.292,0.072,0.606,0.023l0.02-0.002l0.001-0.021  c0.005-0.043,0.408-4.434,1.118-9.438c0.404-2.854,2.232-8.223,3.285-11.169c1.359-3.797,2.561-6.759,2.915-7.421  c-2.462,6.188-4.448,12.349-5.9,18.313l0.044,0.021c0.222-0.313,5.426-7.683,5.466-7.923l0.005-0.033l-0.032,0.004  c-0.643,0.048-1.813-0.809-2.312-1.243c1.052,0.791,1.947,0.938,2.658,0.438l0.006-0.004l0.003-0.007  c0.483-1.129,0.995-2.124,1.489-3.087c0.68-1.324,1.324-2.575,1.886-4.124l0.029-0.078l-0.066,0.049  c-0.247,0.182-1.07,0.363-2.299,0.157c0.828-0.045,2.13-0.565,2.527-0.994c0.106-0.112,0.147-0.215,0.125-0.306  c0.116-0.815,0.414-2.013,0.701-3.169c0.261-1.054,0.509-2.048,0.625-2.762c0.005-0.028-0.003-0.058-0.022-0.09  c-0.094-0.152-0.471-0.349-1.083-0.422c-0.045-0.004-0.076-0.009-0.099-0.013c0.064-0.012,0.173-0.024,0.279-0.037  c0.529-0.061,0.931-0.12,0.933-0.263c0.007-0.516,1.065-4.845,1.977-5.973l0.016-0.013l-0.03-0.048l-0.021,0.025  c-0.455,0.36-1.035,0.709-1.649,1.08c-1.273,0.768-2.591,1.562-2.682,2.442c-0.026,0.246-0.228,0.355-0.343,0.381  c-0.072,0.017-0.121,0.005-0.133-0.015c-0.008-0.014,0-0.035,0.008-0.049c0.146-0.268,0.132-0.288,0.122-0.306l-0.012-0.015  l-0.013-0.001c-0.034-0.003-0.085,0.047-0.254,0.234c-0.055,0.06-0.112,0.124-0.157,0.168c-0.196,0.194-0.489,0.538-0.848,0.993  c-0.356,0.452-1.554,2.069-2.012,2.708c-0.158,0.22-0.11,0.64,0.142,1.25c0.206,0.5,0.504,1.02,0.682,1.328  c0.054,0.094,0.102,0.179,0.13,0.231c-1.109-0.639-1.909-1.096-2.162-0.888c-0.786,0.644-2.494,3.469-2.824,4.321  c-0.342,0.886-0.254,1.999,0.218,2.773c0.208,0.34,0.476,0.603,0.797,0.782c0.192,0.108,0.256,0.159,0.28,0.185  c-0.193-0.004-1.704-0.575-2.061-1.013c-0.024-0.031-0.05-0.027-0.063-0.023c-0.076,0.023-0.307,0.1-0.755,6.812  c-0.222,3.309-0.39,6.642-0.391,6.674l-1.619,13.16l0.049,0.011C8.135,78.447,8.169,77.515,8.114,77.151z"/><circle fill="#000000" cx="16.798" cy="67.469" r="9"/><path d="M76.564,25.764C74.917,20.18,68.368,16,60.5,16c-8.983,0-16.276,5.442-16.48,12.211C38.492,33.08,34.928,40.146,34.774,48  l-0.291,14.855l0.656-0.092c0.121-0.017,10.693-1.491,20.914-1.865C57.972,62.206,59.736,63,59.736,63s1.793-0.809,3.73-2.136  c10.675,0.376,24.42,2.905,24.563,2.933l0.654,0.121l0.291-14.859C89.164,39.337,84.182,30.697,76.564,25.764z M35.638,61.557  l0.265-13.535c0.127-6.52,2.704-12.47,6.83-16.979c-0.717,1.718-1.203,3.556-1.397,5.484c-1.921,2.057-3.61,3.842-3.298,5.352  c0.61,2.957,2.809,5.042,5.068,4.939c0.429,0.908,0.929,1.775,1.486,2.601l-7.705,2.095l0.19,0.975l8.141-2.213  c0.807,1.064,1.715,2.042,2.719,2.919l-10.05,2.319l0.225,0.975l10.795-2.491c0.791,0.605,1.627,1.154,2.508,1.635  c0.445,1.577,1.751,3.018,3.199,4.198C46.259,60.213,37.985,61.248,35.638,61.557z M63.193,46.133  c-1.448-0.796-2.71-1.738-3.542-2.708c-0.678,1.311-2.295,2.64-4.237,3.708c-3.096,1.702-6.45,1.544-7.493-0.354  c-0.209-0.379-0.305-0.8-0.307-1.244c1.491,0.958,4.131,0.79,6.606-0.572c1.617-0.889,3.382-2.393,4.473-3.227  c1.543-0.737,3.218,0.866,5.693,2.227c2.476,1.362,5.115,1.53,6.606,0.572c-0.002,0.443-0.098,0.865-0.307,1.244  C69.644,47.677,66.289,47.835,63.193,46.133z M87.58,62.568c-2.735-0.483-13.521-2.311-22.68-2.772  c1.087-0.893,2.09-1.931,2.703-3.063c2.311-0.871,4.399-2.179,6.194-3.805l11.09,2.56l0.225-0.975l-10.463-2.414  c1.054-1.077,1.985-2.269,2.769-3.566l8.47,1.955l0.225-0.975l-8.184-1.889c0.205-0.386,0.417-0.769,0.597-1.17  c0.271,0.136,0.559,0.237,0.862,0.3c2.442,0.504,4.959-1.679,5.619-4.876c0.415-2.008-2.704-4.498-5.21-7.477  c-0.521-2.437-1.512-4.696-2.851-6.702c-0.01-0.118-0.038-0.232-0.052-0.35c6.766,4.814,11.124,12.777,10.951,21.688L87.58,62.568z   M78.78,43.052c0.347,0.662,0.976,1.142,1.699,1.276c0.718,0.149,1.484-0.063,2.034-0.541c0.538-0.457,0.782-1.257,0.574-1.95  c-0.178-0.705-0.833-1.265-1.575-1.22c-0.729,0-1.428,0.634-1.335,1.39c0.027,0.357,0.216,0.724,0.54,0.905  c0.32,0.186,0.75,0.175,1.066-0.04c-0.304,0.231-0.745,0.273-1.096,0.094c-0.356-0.176-0.581-0.555-0.633-0.946  c-0.046-0.396,0.091-0.812,0.377-1.099c0.284-0.281,0.672-0.45,1.072-0.47c0.398-0.022,0.805,0.101,1.126,0.345  c0.327,0.254,0.536,0.599,0.657,0.983c0.24,0.767,0.003,1.659-0.618,2.203c-0.605,0.508-1.459,0.728-2.231,0.55  c-0.779-0.154-1.459-0.706-1.804-1.401c-0.372-0.688-0.465-1.513-0.277-2.264c0.195-0.751,0.672-1.414,1.304-1.837  C78.42,39.938,78.036,41.752,78.78,43.052z"/></svg>
